<svg width="40" height="40" viewBox="0 0 40 40" fill="none" xmlns="http://www.w3.org/2000/svg">
<circle cx="20" cy="20" r="18.5" fill="#F7F5FF" stroke="#D9D9D9" stroke-width="3"/>
<path d="M28.125 18.125H21.875V11.875C21.875 10.8394 21.0356 10 20 10C18.9644 10 18.125 10.8394 18.125 11.875V18.125H11.875C10.8394 18.125 10 18.9644 10 20C10 21.0356 10.8394 21.875 11.875 21.875H18.125V28.125C18.125 29.1606 18.9644 30 20 30C21.0356 30 21.875 29.1606 21.875 28.125V21.875H28.125C29.1606 21.875 30 21.0356 30 20C30 18.9644 29.1606 18.125 28.125 18.125ZM20 0C8.95437 0 0 8.95437 0 20C0 31.0456 8.95437 40 20 40C31.0456 40 40 31.0456 40 20C40 8.95437 31.0456 0 20 0ZM20 36.25C11.0256 36.25 3.75 28.9744 3.75 20C3.75 11.025 11.0256 3.75 20 3.75C28.9744 3.75 36.25 11.0256 36.25 20C36.25 28.9744 28.9744 36.25 20 36.25Z" fill="#5C38FF"/>
</svg>
