<svg width="35" height="35" viewBox="0 0 37 38" fill="current" xmlns="http://www.w3.org/2000/svg">
<path d="M34.0201 18.6742C34.0201 28.2311 26.6702 35.8484 17.76 35.8484C8.84993 35.8484 1.5 28.2311 1.5 18.6742C1.5 9.11732 8.84993 1.5 17.76 1.5C26.6702 1.5 34.0201 9.11732 34.0201 18.6742Z" fill="#F7F5FF" stroke="#D9D9D9" stroke-width="3"/>
<path d="M24.7983 12.2549C24.3317 12.2549 23.909 12.451 23.603 12.7679L15.7808 20.8672L11.9038 16.8529C11.5977 16.536 11.175 16.3399 10.7084 16.3399C9.77449 16.3399 9.01758 17.1237 9.01758 18.0906C9.01758 18.5738 9.20695 19.0115 9.51298 19.3284L14.5854 24.5805C14.8914 24.8974 15.3141 25.0935 15.7808 25.0935C16.2474 25.0935 16.6701 24.8974 16.9762 24.5805L25.9937 15.2434C26.2998 14.9271 26.4891 14.4888 26.4891 14.0056C26.4891 13.0387 25.7322 12.2549 24.7983 12.2549ZM18.0352 0C8.07468 0 0 8.36079 0 18.6742C0 28.9876 8.07468 37.3484 18.0352 37.3484C27.9956 37.3484 36.0703 28.9876 36.0703 18.6742C36.0703 8.36079 27.9956 0 18.0352 0ZM18.0352 33.847C9.94245 33.847 3.38159 27.0537 3.38159 18.6742C3.38159 10.2942 9.94245 3.50141 18.0352 3.50141C26.1279 3.50141 32.6887 10.2942 32.6887 18.6742C32.6887 27.0537 26.1279 33.847 18.0352 33.847Z" fill="#5C38FF"/>
</svg>
