<svg width="180" height="60" viewBox="0 0 247 106" fill="none" xmlns="http://www.w3.org/2000/svg">
<path d="M237.161 30.8102C208.342 -11.1878 139.655 1.98805 108.914 13.8257C-54.3966 96.5864 108.914 53.3533 94.0241 86.7046C82.112 113.386 154.065 105.439 191.53 98.1305C218.749 93.1896 265.981 72.8082 237.161 30.8102Z" fill="#DBCAF4" fill-opacity="0.3"/>
<path d="M93.2415 0.560318C90.7503 1.87551 90.0708 2.51043 88.9385 4.55124C88.3043 5.73038 87.8061 7.36302 87.8061 8.27005C87.8061 9.72129 87.489 10.0841 83.639 12.9866C81.3289 14.7553 77.2071 18.0206 74.4441 20.3335C71.1376 23.0999 69.2352 24.3698 68.7822 24.1884C60.3121 20.6056 50.8001 19.9253 42.6018 22.329L38.8423 23.4174L34.6752 21.6941C25.0726 17.7485 18.0519 18.6555 15.3795 24.0977C13.6583 27.7258 14.383 34.1657 17.2819 40.7416L18.369 43.1906L17.3272 45.7303C14.066 53.8028 14.2471 65.3674 17.7349 73.576L18.5049 75.3447L12.9789 82.1928C6.36583 90.4467 1.56457 97.7029 0.522783 100.968C-0.201936 103.327 -0.201936 103.417 0.703963 104.642C3.37636 108.224 8.99293 105.186 27.9262 89.9025L29.1945 88.9048L31.4139 90.4921C41.6506 97.7936 56.0091 99.2449 67.9669 94.2109L70.0958 93.3039L72.9494 94.3016C74.7612 94.9365 77.2977 95.39 79.8795 95.5261C83.5031 95.7075 84.1825 95.6168 85.9943 94.6644C87.3532 93.9388 88.4402 92.8957 89.3914 91.3991C91.2938 88.3152 91.2938 83.9615 89.482 78.3833L88.1685 74.4377L89.3461 70.8096C92.9244 59.4264 91.1126 47.0001 84.4543 37.2949L82.9143 35.0274L87.8514 28.9956C90.5691 25.6396 93.7397 21.558 94.9174 19.8346C96.1404 18.1113 97.4086 16.7508 97.8616 16.7508C99.5375 16.7508 101.938 15.1181 103.206 13.168C105.471 9.76665 105.018 5.00475 102.21 2.37437C99.8546 0.19751 95.5968 -0.664169 93.2415 0.560318ZM98.8581 4.73264C102.165 6.90951 100.987 12.2156 97.0463 12.9412C92.8791 13.7122 90.0709 8.27005 93.0603 5.23151C94.4645 3.87096 97.1369 3.64421 98.8581 4.73264ZM92.0185 15.7077C92.698 16.0705 92.4715 16.5694 89.9803 19.9254C88.4402 22.0569 85.632 25.6396 83.6843 27.9525L80.1966 32.1249L77.9771 30.2201C76.7088 29.177 75.1235 27.9072 74.4441 27.4083L73.1758 26.4559L77.2071 23.0546C79.4265 21.1498 83.0501 18.2474 85.2696 16.6147C89.2555 13.5762 89.3461 13.5762 90.252 14.3925C90.7956 14.8913 91.5656 15.4356 92.0185 15.7077ZM28.968 23.8256C32.1839 24.7326 33.9051 25.4129 33.9051 25.7757C33.9051 25.9117 32.9992 26.6374 31.9122 27.3176C28.968 29.177 23.7591 34.1203 22.2643 36.4786C21.5849 37.6124 20.8602 38.5194 20.679 38.5194C20.1808 38.5194 18.5502 33.0319 18.2331 30.3108C17.8707 27.3176 18.8219 24.8233 20.7243 23.7802C22.3096 22.9185 25.9332 22.9185 28.968 23.8256ZM61.0368 25.6396C65.2945 26.6827 70.8658 29.4945 74.6253 32.4423L77.8412 35.0274L74.5347 38.7008C70.6846 43.0092 55.8279 58.6101 52.5214 61.83L50.2113 64.0976L48.626 63.3266C46.4518 62.2835 41.8771 62.3289 39.7935 63.4173L38.2535 64.279L36.2152 62.0114C32.1386 57.4309 27.2015 50.855 24.212 45.9117L22.5361 43.0999L24.3026 40.4695C26.8844 36.66 29.6021 33.7122 32.4557 31.626C35.5358 29.3131 41.4694 26.5013 45.0024 25.685C48.8072 24.7326 57.3679 24.7326 61.0368 25.6396ZM84.4543 45.0954C86.1302 48.9956 86.9002 52.4876 87.2173 57.7937C87.4437 62.2382 87.3532 63.2359 86.3114 67.1815C83.956 75.9796 79.3812 82.6009 72.2699 87.4535L70.0505 88.9501L68.1934 88.1338C66.5628 87.3628 55.9185 80.5148 53.699 78.7461C52.9743 78.1565 52.9743 77.9751 53.6084 76.4785C54.469 74.3923 54.469 70.6735 53.6084 68.5874L52.929 66.9547L60.2668 59.4264C64.3433 55.2994 70.4581 48.7688 73.9459 44.9593L80.2419 38.0205L81.7819 40.3788C82.6878 41.6487 83.8654 43.7802 84.4543 45.0954ZM23.895 52.3969C26.4315 56.2064 29.1492 59.6985 33.9051 65.3221L35.3093 66.9094L34.5846 69.7211C33.9051 72.3062 33.9051 72.7597 34.5846 75.3447L35.264 78.1112L32.2292 80.9229L29.1945 83.7347L26.7485 80.9683C23.9856 77.7937 20.7243 71.4445 19.6825 67.0454C18.7313 63.0999 18.7313 54.8459 19.6825 50.991C20.0902 49.3584 20.5884 48.0432 20.7243 48.0432C20.9055 48.0432 22.3549 49.9933 23.895 52.3969ZM47.403 67.0908C49.3054 68.2699 50.6643 70.5375 50.6643 72.5329C50.6643 75.7075 47.5389 78.8821 44.4136 78.8821C40.79 78.8821 37.9817 76.1157 37.9817 72.5329C37.9817 67.635 43.2812 64.5511 47.403 67.0908ZM24.4838 84.2789L26.205 86.229L21.5396 90.0386C14.5642 95.7982 5.64111 102.011 4.37285 102.011C3.14989 102.011 8.53998 93.9841 16.0136 84.6871L20.5431 79.0182L21.6302 80.6508C22.2643 81.5579 23.5326 83.1905 24.4838 84.2789ZM86.3567 81.3765C87.0361 84.0068 87.0361 87.8617 86.3114 89.3129C85.9943 89.9479 84.9525 90.8549 84.0013 91.3084C82.416 92.0794 81.9178 92.1247 78.7924 91.6259C76.9353 91.3538 75.2141 90.9456 74.9876 90.7188C74.8065 90.5374 75.4406 89.8118 76.4371 89.1315C78.6565 87.5896 83.2766 82.7823 84.409 80.7869C84.9072 80.0159 85.4055 79.3356 85.5414 79.3356C85.6772 79.3356 86.0396 80.2427 86.3567 81.3765ZM43.4171 82.8277C44.64 83.0091 46.0895 82.7823 47.9466 82.1021L50.619 81.1043L54.152 83.7801C56.0997 85.2767 59.3609 87.4989 61.4445 88.7687C63.528 89.9932 65.068 91.127 64.8416 91.2631C63.6186 91.9887 58.9532 92.9864 55.6014 93.2585C48.2183 93.7574 40.337 91.8073 34.6752 88.0431L32.048 86.2744L35.0828 83.5533L38.1176 80.8776L39.8388 81.7393C40.79 82.1928 42.4206 82.6916 43.4171 82.8277Z" fill="white"/>
<path d="M43.0547 31.8073C42.4659 32.3969 42.33 33.9388 42.8735 34.7098C43.9153 36.2064 46.5877 35.254 46.5877 33.3492C46.5877 32.0794 45.7724 31.2631 44.5495 31.2631C44.0059 31.2631 43.3718 31.4898 43.0547 31.8073Z" fill="white"/>
<path d="M44.549 47.2275C43.0996 48.0438 42.556 49.0416 42.5107 50.8103C42.5107 54.257 46.8591 55.935 49.1238 53.3046C50.6185 51.5812 50.5279 49.6765 48.8973 47.9985C47.4932 46.6379 46.0437 46.3658 44.549 47.2275Z" fill="white"/>
<path d="M78.475 50.0378C78.0221 51.217 78.6562 52.2147 79.7433 52.0333C80.5133 51.9426 80.7851 51.5798 80.7851 50.7635C80.7851 49.9471 80.5133 49.5843 79.7433 49.4936C79.1544 49.4029 78.6109 49.6297 78.475 50.0378Z" fill="white"/>
<path d="M67.1516 65.0049C61.1274 68.7237 63.6186 77.9754 70.6394 77.9754C74.58 77.9754 77.6148 74.9369 77.6148 70.9459C77.6148 67.0911 75.0783 64.37 71.1829 64.0525C69.4617 63.9165 68.6464 64.0979 67.1516 65.0049Z" fill="white"/>
<path d="M23.7586 67.3634C22.7168 68.4065 22.8527 69.6764 24.1662 70.538C25.208 71.2183 25.3892 71.2183 26.431 70.538C27.0651 70.1299 27.5633 69.4043 27.5633 68.9054C27.5633 67.817 26.3857 66.6378 25.2986 66.6378C24.8456 66.6378 24.1209 66.9553 23.7586 67.3634Z" fill="white"/>
<path d="M44.7749 87.0454C44.7749 88.3152 44.9108 88.4513 46.0432 88.3152C46.9944 88.2245 47.2661 87.9524 47.2661 87.0454C47.2661 86.1384 46.9944 85.8662 46.0432 85.7755C44.9108 85.6395 44.7749 85.7755 44.7749 87.0454Z" fill="white"/>
<path d="M93.7855 35.4807C92.3814 36.9773 92.4719 39.1088 93.9667 40.288C95.552 41.5578 97.092 41.4671 98.4509 40.1065C99.8097 38.746 99.9003 37.2041 98.6321 35.6168C97.4091 34.0748 95.1443 33.9841 93.7855 35.4807Z" fill="white"/>
<path d="M133.736 38.0658C129.387 38.9275 125.628 41.2404 124.088 43.9615C122.865 46.1384 122.729 49.9932 123.726 51.9887C126.217 56.7959 133.056 59.3356 141.889 58.7914C146.781 58.4739 149.861 57.6122 152.578 55.7982C157.108 52.805 158.195 47 155.024 42.7824C153.62 40.9683 149.227 38.7007 145.829 38.0658C143.021 37.5216 136.408 37.5669 133.736 38.0658ZM143.972 41.7393C151.038 42.8731 154.3 46.7733 151.718 51.0363C149.906 53.9841 142.885 55.7528 136.499 54.8912C130.61 54.0748 127.44 51.7619 127.44 48.2699C127.44 46.8186 127.712 46.0023 128.572 45.0953C131.516 41.966 137.359 40.6508 143.972 41.7393Z" fill="white"/>
<path d="M169.337 40.5602V42.601H176.81H184.284V43.6441C184.284 45.1407 181.974 48.1793 179.438 50.084C176.856 51.9434 172.326 53.8482 169.518 54.2563C167.253 54.5285 167.163 54.8913 168.431 57.0228C169.065 58.0659 169.609 58.474 170.152 58.2926C170.56 58.1566 171.828 57.8391 172.96 57.567C176.765 56.5693 181.702 53.8028 184.284 51.2178L186.821 48.6781L188.95 50.855C191.441 53.3493 195.925 55.9797 199.775 57.1588C203.58 58.3833 204.078 58.2926 205.075 56.2972L205.98 54.5738L203.399 54.0296C197.918 52.8958 191.848 49.0863 190.172 45.7756C188.542 42.5557 188.361 42.601 196.74 42.601H204.214V40.5602V38.5194H186.775H169.337V40.5602Z" fill="white"/>
<path d="M165.261 64.3695V66.1835H170.696H176.132L176.222 74.4375L176.358 82.7368L178.532 82.8728L180.661 83.0089V74.6189V66.1835H186.549H192.438V74.5735V82.9635H194.702H196.967V74.5735V66.1835H202.629H208.291V64.3695V62.5554H186.776H165.261V64.3695Z" fill="white"/>
<path d="M118.607 64.8238V66.6378H128.119H137.631V74.8011V82.9643H139.896H142.161V74.8011V66.6378H151.899H161.638V64.8238V63.0097H140.123H118.607V64.8238Z" fill="white"/>
</svg>
