<svg width="14" height="16" viewBox="0 0 18 20" fill="none" xmlns="http://www.w3.org/2000/svg">
<path d="M1.63623 19.5222C1.63623 19.6416 1.63624 19.7611 1.77785 19.8805C1.91946 19.9999 2.06107 19.9999 2.20268 19.9999H15.7971C16.0803 19.9999 16.3635 19.7611 16.3635 19.5222V4.11752H1.63623V19.5222Z" fill="#C5C7CE"/>
<path d="M16.8293 0.767256H10.9756V0.255752C10.9756 0.127874 10.8293 0 10.6829 0H6.87804C6.7317 0 6.58536 0.127874 6.58536 0.255752V0.767256H1.17074C0.58537 0.767256 0 1.15089 0 1.79028V2.94118H18V1.79028C18 1.15089 17.561 0.767256 16.8293 0.767256Z" fill="#C5C7CE"/>
</svg>
